<svg width="74" height="28" viewBox="0 0 74 28" fill="none" xmlns="http://www.w3.org/2000/svg">
<path d="M74 0L19.8624 24.917C15.373 26.9701 11.6021 28 8.55266 28C5.0993 28 2.59253 26.6935 1.03852 24.0771C0.0610931 22.3973 -0.225659 20.2676 0.175177 17.6846C0.576014 15.1015 1.64286 12.3519 3.36954 9.42554C4.80946 7.05916 7.16823 3.94953 10.452 0.0933218C9.33819 1.98865 8.52143 4.06971 8.03465 6.25259C7.17131 10.2354 7.94832 13.1584 10.3657 15.0249C11.5158 15.8948 13.0975 16.3314 15.114 16.3314C16.7236 16.3314 18.5366 16.0514 20.5531 15.4915L74 0Z" fill="black"/>
</svg>
